<svg xmlns="http://www.w3.org/2000/svg" xmlns:xlink="http://www.w3.org/1999/xlink" width="500" zoomAndPan="magnify" viewBox="0 0 375 374.999991" height="500" preserveAspectRatio="xMidYMid meet" version="1.0"><defs><g/></defs><rect x="-37.5" width="450" fill="#ffffff" y="-37.499999" height="449.999989" fill-opacity="1"/><rect x="-37.5" width="450" fill="#ffffff" y="-37.499999" height="449.999989" fill-opacity="1"/><g fill="#782618" fill-opacity="1"><g transform="translate(53.184304, 243.766915)"><g><path d="M 16.90625 -47.03125 C 16.90625 -41.925781 18.023438 -37.113281 20.265625 -32.59375 C 22.503906 -28.082031 25.6875 -24.414062 29.8125 -21.59375 C 33.945312 -18.78125 38.796875 -17.375 44.359375 -17.375 C 46.367188 -17.375 48.53125 -17.660156 50.84375 -18.234375 C 53.164062 -18.816406 55.328125 -19.613281 57.328125 -20.625 L 19.109375 -58.84375 C 18.410156 -56.988281 17.867188 -55.054688 17.484375 -53.046875 C 17.097656 -51.035156 16.90625 -49.03125 16.90625 -47.03125 Z M 72.046875 -47.03125 C 72.046875 -52.195312 70.984375 -57 68.859375 -61.4375 C 66.734375 -65.882812 63.625 -69.476562 59.53125 -72.21875 C 55.4375 -74.957031 50.378906 -76.328125 44.359375 -76.328125 C 41.503906 -76.328125 38.859375 -75.976562 36.421875 -75.28125 C 33.992188 -74.59375 31.773438 -73.59375 29.765625 -72.28125 L 69.03125 -33.015625 C 69.957031 -35.015625 70.691406 -37.289062 71.234375 -39.84375 C 71.773438 -42.394531 72.046875 -44.789062 72.046875 -47.03125 Z M 89.65625 -11.8125 C 90.34375 -11.351562 90.34375 -10.851562 89.65625 -10.3125 L 79.6875 -0.234375 C 79.070312 0.148438 78.457031 0.148438 77.84375 -0.234375 L 69.5 -8.6875 C 65.863281 -6.289062 61.90625 -4.414062 57.625 -3.0625 C 53.34375 -1.71875 48.921875 -1.046875 44.359375 -1.046875 C 37.722656 -1.046875 31.679688 -2.28125 26.234375 -4.75 C 20.785156 -7.21875 16.113281 -10.59375 12.21875 -14.875 C 8.320312 -19.164062 5.3125 -24.070312 3.1875 -29.59375 C 1.0625 -35.113281 0 -40.925781 0 -47.03125 C 0 -53.050781 1.019531 -58.800781 3.0625 -64.28125 C 5.113281 -69.769531 8.066406 -74.632812 11.921875 -78.875 C 15.785156 -83.125 20.4375 -86.484375 25.875 -88.953125 C 31.320312 -91.421875 37.484375 -92.65625 44.359375 -92.65625 C 51.003906 -92.65625 57.03125 -91.421875 62.4375 -88.953125 C 67.84375 -86.484375 72.53125 -83.125 76.5 -78.875 C 80.476562 -74.632812 83.53125 -69.769531 85.65625 -64.28125 C 87.78125 -58.800781 88.84375 -53.050781 88.84375 -47.03125 C 88.84375 -42.550781 88.164062 -37.894531 86.8125 -33.0625 C 85.457031 -28.238281 83.585938 -24.015625 81.203125 -20.390625 Z M 89.65625 -11.8125 "/></g></g></g><g fill="#782618" fill-opacity="1"><g transform="translate(160.548767, 243.766915)"><g><path d="M 70.65625 -75.640625 L 52.9375 -75.640625 C 50.695312 -75.710938 48.070312 -75.648438 45.0625 -75.453125 C 42.050781 -75.265625 38.960938 -74.6875 35.796875 -73.71875 C 32.628906 -72.757812 29.671875 -71.234375 26.921875 -69.140625 C 24.179688 -67.054688 21.984375 -64.160156 20.328125 -60.453125 C 18.671875 -56.753906 17.84375 -52.046875 17.84375 -46.328125 C 17.84375 -38.992188 19.363281 -33.101562 22.40625 -28.65625 C 25.457031 -24.21875 29.628906 -21.070312 34.921875 -19.21875 C 40.210938 -17.375 46.21875 -16.601562 52.9375 -16.90625 L 52.9375 -40.078125 L 35.09375 -40.078125 L 35.09375 -57.796875 L 70.65625 -57.796875 L 70.65625 -1.046875 C 70.65625 -0.347656 70.226562 0 69.375 0 L 54.328125 0 C 49.765625 0 44.992188 -0.304688 40.015625 -0.921875 C 35.035156 -1.546875 30.171875 -2.742188 25.421875 -4.515625 C 20.671875 -6.296875 16.382812 -8.882812 12.5625 -12.28125 C 8.738281 -15.675781 5.6875 -20.148438 3.40625 -25.703125 C 1.132812 -31.265625 0 -38.140625 0 -46.328125 C 0 -54.285156 1.117188 -60.984375 3.359375 -66.421875 C 5.597656 -71.867188 8.628906 -76.3125 12.453125 -79.75 C 16.273438 -83.1875 20.539062 -85.847656 25.25 -87.734375 C 29.957031 -89.628906 34.820312 -90.921875 39.84375 -91.609375 C 44.863281 -92.304688 49.691406 -92.65625 54.328125 -92.65625 L 69.375 -92.65625 C 70.226562 -92.65625 70.65625 -92.3125 70.65625 -91.625 Z M 70.65625 -75.640625 "/></g></g></g><g fill="#782618" fill-opacity="1"><g transform="translate(247.529479, 243.766915)"><g><path d="M 52.9375 -17.03125 L 70.65625 -17.03125 L 70.65625 -1.046875 C 70.65625 -0.347656 70.226562 0 69.375 0 L 54.328125 0 C 49.691406 0 44.863281 -0.34375 39.84375 -1.03125 C 34.820312 -1.726562 29.957031 -3.023438 25.25 -4.921875 C 20.539062 -6.816406 16.273438 -9.476562 12.453125 -12.90625 C 8.628906 -16.34375 5.597656 -20.785156 3.359375 -26.234375 C 1.117188 -31.679688 0 -38.378906 0 -46.328125 C 0 -54.515625 1.132812 -61.382812 3.40625 -66.9375 C 5.6875 -72.5 8.738281 -76.976562 12.5625 -80.375 C 16.382812 -83.78125 20.671875 -86.367188 25.421875 -88.140625 C 30.171875 -89.921875 35.035156 -91.117188 40.015625 -91.734375 C 44.992188 -92.347656 49.765625 -92.65625 54.328125 -92.65625 L 69.375 -92.65625 C 70.226562 -92.65625 70.65625 -92.3125 70.65625 -91.625 L 70.65625 -55.25 L 52.9375 -55.25 L 52.9375 -75.75 C 46.21875 -76.132812 40.210938 -75.378906 34.921875 -73.484375 C 29.628906 -71.597656 25.457031 -68.429688 22.40625 -63.984375 C 19.363281 -59.546875 17.84375 -53.660156 17.84375 -46.328125 C 17.84375 -40.617188 18.671875 -35.910156 20.328125 -32.203125 C 21.984375 -28.492188 24.179688 -25.597656 26.921875 -23.515625 C 29.671875 -21.429688 32.628906 -19.90625 35.796875 -18.9375 C 38.960938 -17.96875 42.050781 -17.382812 45.0625 -17.1875 C 48.070312 -17 50.695312 -16.945312 52.9375 -17.03125 Z M 52.9375 -17.03125 "/></g></g></g></svg>